<?xml version="1.0" standalone="no"?>
<!DOCTYPE svg PUBLIC "-//W3C//DTD SVG 20010904//EN"
 "http://www.w3.org/TR/2001/REC-SVG-20010904/DTD/svg10.dtd">
<svg version="1.0" xmlns="http://www.w3.org/2000/svg"
 width="1080.000000pt" height="375.000000pt" viewBox="0 0 1080.000000 375.000000"
 preserveAspectRatio="xMidYMid meet">

<g transform="translate(0.000000,375.000000) scale(0.100000,-0.100000)"
fill="#000000" stroke="none">
<path d="M925 3420 c-249 -22 -492 -199 -604 -441 -67 -143 -64 -103 -69 -991
-4 -884 1 -1032 41 -1140 77 -211 264 -398 475 -475 105 -39 283 -45 1147 -40
687 3 776 6 830 21 208 59 399 215 491 400 80 163 77 126 81 1051 3 505 0 863
-6 931 -17 190 -85 329 -236 479 -73 74 -106 99 -176 133 -155 77 -130 75
-1059 77 -454 2 -865 -1 -915 -5z m629 -799 c96 -27 174 -84 375 -276 164
-156 205 -186 230 -170 29 17 3 55 -135 201 -88 95 -144 162 -142 172 8 41
162 92 275 92 109 -1 182 -26 274 -96 86 -66 144 -143 174 -233 23 -70 24
-247 2 -308 -22 -60 -74 -138 -147 -218 -70 -77 -666 -685 -672 -685 -5 0
-463 462 -576 580 -129 136 -205 230 -233 286 -21 42 -24 66 -27 174 -4 148
10 197 83 297 121 166 323 238 519 184z"/>
<path d="M1403 2395 c-33 -14 -37 -22 -47 -99 -7 -50 -11 -54 -76 -66 -65 -12
-98 -32 -106 -64 -14 -57 24 -94 108 -107 28 -5 55 -12 60 -17 5 -5 13 -35 17
-66 10 -75 33 -100 86 -93 56 8 75 35 75 108 l0 59 33 0 c90 1 157 42 157 96
0 15 -12 38 -29 54 -22 23 -41 30 -89 36 -67 7 -72 13 -72 90 0 22 -6 47 -12
56 -19 23 -68 30 -105 13z"/>
<path d="M6050 2456 c-14 -8 -52 -19 -84 -25 -59 -11 -80 -20 -61 -28 6 -2 21
-9 35 -16 l25 -13 3 -376 c2 -410 3 -408 -54 -408 -15 0 -24 -6 -24 -15 0 -13
26 -15 170 -15 144 0 170 2 170 15 0 8 -9 15 -20 15 -11 0 -29 9 -40 20 -19
19 -20 33 -20 440 l0 420 -37 0 c-21 -1 -49 -7 -63 -14z"/>
<path d="M6835 2449 c-22 -10 -51 -19 -65 -19 -36 0 -70 -11 -70 -21 0 -5 7
-9 15 -9 9 0 27 -11 40 -25 l25 -24 -1 -348 c-1 -191 -4 -359 -8 -373 -4 -17
-17 -28 -39 -35 -18 -5 -32 -15 -32 -22 0 -10 37 -13 165 -13 140 0 165 2 165
15 0 8 -9 15 -19 15 -47 0 -51 18 -51 235 l0 203 31 26 c38 33 82 34 103 4 13
-19 16 -61 16 -260 l0 -238 130 0 c100 0 130 3 130 13 0 7 -14 17 -32 22 -22
7 -35 18 -39 35 -4 14 -7 113 -8 220 -1 170 -3 200 -20 230 -28 54 -62 74
-134 78 -71 5 -132 -18 -161 -60 -15 -21 -16 -7 -16 175 l0 197 -42 -1 c-24 0
-61 -9 -83 -20z"/>
<path d="M8140 2439 c-213 -37 -360 -215 -360 -438 0 -233 147 -407 372 -442
147 -23 302 23 387 117 34 36 40 48 31 59 -10 12 -20 8 -59 -26 -98 -87 -217
-123 -313 -95 -129 37 -198 172 -198 386 0 267 107 413 293 398 34 -3 81 -15
103 -26 48 -25 108 -88 128 -137 8 -19 22 -35 30 -35 14 0 16 19 16 125 0 135
-5 145 -47 99 -16 -17 -29 -24 -41 -19 -83 32 -253 49 -342 34z"/>
<path d="M3670 2418 c0 -14 8 -18 38 -18 74 0 72 9 72 -401 0 -282 -3 -369
-13 -383 -7 -9 -32 -20 -55 -23 -26 -3 -42 -11 -42 -19 0 -11 40 -14 215 -14
175 0 215 3 215 14 0 8 -16 15 -41 19 -72 10 -74 14 -77 222 l-3 185 165 0
166 0 0 -179 c0 -206 -4 -218 -78 -228 -26 -3 -42 -11 -42 -19 0 -11 40 -14
215 -14 176 0 215 3 215 14 0 8 -16 16 -39 20 -74 12 -71 -6 -71 405 0 413 -2
401 73 401 29 0 37 4 37 19 0 17 -12 18 -215 18 -201 0 -215 -1 -215 -18 0
-14 9 -19 47 -21 68 -4 73 -19 73 -206 l0 -152 -162 2 -163 3 -2 150 c-4 184
2 199 70 203 39 3 47 7 47 22 0 18 -10 19 -215 18 -201 -2 -215 -3 -215 -20z"/>
<path d="M6471 2296 c-37 -54 -122 -131 -173 -157 -51 -26 -50 -49 1 -49 l39
0 7 -86 c4 -47 4 -120 1 -162 -9 -98 6 -203 34 -242 26 -36 82 -55 142 -46 57
9 149 61 142 81 -5 13 -8 13 -27 0 -28 -20 -81 -19 -98 2 -11 12 -14 64 -14
232 l0 216 58 3 c57 3 58 4 55 30 -3 25 -6 27 -60 30 l-58 3 0 94 c0 54 -4 95
-10 95 -5 0 -23 -20 -39 -44z"/>
<path d="M4863 2143 c-67 -23 -138 -94 -163 -161 -32 -83 -26 -219 12 -284 32
-53 87 -104 137 -126 55 -24 167 -21 216 5 65 34 137 125 116 146 -7 7 -24 -2
-55 -31 -50 -46 -80 -57 -131 -49 -49 8 -81 33 -105 82 -19 40 -42 179 -31
190 2 3 81 5 174 5 l170 0 -6 49 c-10 83 -56 148 -125 177 -44 18 -155 17
-209 -3z m144 -38 c20 -14 33 -44 47 -107 l6 -28 -100 0 c-111 0 -110 -1 -90
72 19 66 87 98 137 63z"/>
<path d="M5423 2144 c-56 -20 -103 -74 -103 -118 0 -40 19 -59 56 -54 30 3 37
13 53 75 19 70 98 96 146 48 21 -21 25 -33 25 -89 l0 -65 -37 -6 c-122 -19
-179 -44 -230 -97 -56 -59 -68 -129 -34 -205 44 -95 198 -110 271 -26 l30 34
0 -41 0 -40 135 0 c113 0 135 2 135 15 0 9 -9 15 -25 15 -14 0 -34 9 -45 20
-19 19 -20 33 -20 210 0 208 -6 237 -56 283 -16 15 -48 33 -73 42 -56 19 -173
18 -228 -1z m177 -361 c0 -86 -3 -99 -22 -120 -14 -15 -33 -23 -54 -23 -46 0
-68 42 -62 118 4 48 10 60 41 89 25 22 47 33 67 33 l30 0 0 -97z"/>
<path d="M8861 2147 c-19 -6 -51 -27 -73 -47 -30 -29 -38 -44 -38 -72 0 -42
19 -61 56 -56 30 3 37 13 53 75 19 70 98 96 146 48 22 -21 25 -33 25 -90 0
-36 -1 -65 -2 -66 -2 0 -25 -3 -53 -6 -112 -12 -221 -78 -252 -150 -29 -72 -1
-178 55 -207 78 -40 176 -25 227 35 l25 31 0 -41 0 -41 135 0 c113 0 135 2
135 15 0 9 -9 15 -25 15 -14 0 -34 9 -45 20 -19 19 -20 33 -20 210 0 208 -6
237 -56 283 -16 15 -48 33 -73 42 -51 17 -169 18 -220 2z m169 -364 c0 -86 -3
-99 -22 -120 -33 -35 -83 -32 -103 7 -44 85 13 210 96 210 l29 0 0 -97z"/>
<path d="M9490 2145 c-14 -7 -56 -19 -93 -26 -66 -12 -85 -30 -39 -37 47 -7
52 -32 52 -249 0 -190 -1 -204 -20 -223 -11 -11 -29 -20 -40 -20 -11 0 -20 -7
-20 -15 0 -13 26 -15 170 -15 144 0 170 2 170 15 0 9 -9 15 -24 15 -51 0 -56
17 -56 200 l0 168 40 51 c22 28 46 52 53 52 27 3 43 -4 68 -27 71 -67 164 32
94 101 -50 51 -149 19 -223 -71 l-32 -39 0 68 0 67 -37 0 c-21 -1 -49 -7 -63
-15z"/>
<path d="M10103 2144 c-67 -25 -138 -95 -163 -162 -32 -83 -26 -219 12 -284
32 -53 87 -104 137 -126 55 -24 167 -21 216 5 46 25 86 65 109 110 25 50 0 51
-49 3 -37 -36 -51 -43 -92 -47 -97 -8 -155 57 -172 192 -5 39 -7 73 -4 78 2 4
81 7 175 7 l171 0 -6 50 c-8 66 -38 118 -89 154 -36 26 -51 30 -122 33 -55 2
-95 -2 -123 -13z m144 -39 c20 -14 33 -44 47 -107 l6 -28 -100 0 c-111 0 -110
-1 -90 72 19 66 87 98 137 63z"/>
</g>
</svg>
